<?xml version="1.0" encoding="UTF-8"?>
<svg id="Layer_1" data-name="Layer 1" xmlns="http://www.w3.org/2000/svg" viewBox="0 0 445 411">
  <defs>
    <style>
      .cls-1, .cls-2 {
        fill: #fff;
      }

      .cls-2 {
        font-family: Play-Regular, Play;
        font-size: 72px;
      }
    </style>
  </defs>
  <g>
    <path class="cls-1" d="M191.11,146.85l.16-9.85,14.97-3.03,11.43,3.98,104.1-100.96H147.02c-18.14,0-33.28,12.79-36.91,29.85l81.01,80Z"/>
    <path class="cls-1" d="M349.04,46.6l-2.76,3.4-116.52,113.7,.41,18.51,131.47,67.87V74.74c0-11.19-4.87-21.23-12.6-28.14Z"/>
    <path class="cls-1" d="M230.94,216.84l1.65,74.16h91.31c10.11,0,19.28-3.98,26.06-10.45l-119.01-63.71Z"/>
    <path class="cls-1" d="M190.4,190.97L109.27,107.95V253.26c0,20.84,16.9,37.74,37.74,37.74h41.76l1.62-100.03Z"/>
  </g>
  <g>
    <path class="cls-1" d="M191.11,146.85l.16-9.85,14.97-3.03,11.43,3.98,104.1-100.96H147.02c-18.14,0-33.28,12.79-36.91,29.85l81.01,80Z"/>
    <path class="cls-1" d="M349.04,46.6l-2.76,3.4-116.52,113.7,.41,18.51,131.47,67.87V74.74c0-11.19-4.87-21.23-12.6-28.14Z"/>
    <path class="cls-1" d="M230.94,216.84l1.65,74.16h91.31c10.11,0,19.28-3.98,26.06-10.45l-119.01-63.71Z"/>
    <path class="cls-1" d="M190.4,190.97L109.27,107.95V253.26c0,20.84,16.9,37.74,37.74,37.74h41.76l1.62-100.03Z"/>
  </g>
  <text class="cls-2" transform="translate(108.56 360.94)"><tspan x="0" y="0">Ecosera</tspan></text>
</svg>