<?xml version="1.0" encoding="UTF-8"?>
<svg id="Layer_1" data-name="Layer 1" xmlns="http://www.w3.org/2000/svg" viewBox="0 0 32 32">
  <defs>
    <style>
      .cls-1 {
        fill: #ffe736;
      }
    </style>
  </defs>
  <path class="cls-1" d="M16.54,17.16v-.34c.18-.13,.33-.3,.46-.48,2.75,1.75,9.19,5.35,11.76,6.14,.19,.06,.39-.03,.46-.21,.14-.32,.27-.64,.39-.97s.04-.68-.2-.92c-2.04-2.02-6.4-6.19-7.81-6.43-1.51-.26-3.12,.38-4.36,.26-.17-.44-.48-.81-.87-1.05,.67-2.07,2.12-8.03,2.64-11.74,.05-.33-.17-.63-.49-.71-.45-.11-.91-.2-1.38-.26-.4-.06-.79,.14-.98,.5-1.42,2.73-3.25,6.52-3.12,7.68,.19,1.63,1.38,3.08,1.49,4.37-.76,.3-1.31,1.05-1.35,1.94-1.97,.87-9.34,5.06-11.94,7.22-.3,.25-.38,.67-.2,1.01,.1,.18,.19,.36,.3,.54,.18,.32,.55,.47,.91,.38,2.71-.71,8.71-2.38,9.65-3.49,.98-1.16,1.26-2.86,1.99-3.86l.11,.04-.82,14.07c-.02,.35,.25,.66,.6,.69,.38,.03,.76,.04,1.15,.04,.78,0,1.55-.06,2.3-.17,.33-.05,.57-.35,.54-.69l-1.22-13.56Z"/>
</svg>